<?xml version="1.0" encoding="UTF-8"?>
<svg id="Layer_2" data-name="Layer 2" xmlns="http://www.w3.org/2000/svg" viewBox="0 0 130.46 54.8">
  <defs>
    <style>
      .cls-1 {
        fill: #e56b25;
      }

      .cls-2 {
        fill: none;
        stroke: #e56b25;
        stroke-miterlimit: 10;
      }

      .cls-3 {
        fill: #231f20;
      }
    </style>
  </defs>
  <g id="Layer_1-2" data-name="Layer 1">
    <g>
      <path class="cls-3" d="m1.59,23.88c-1.11,0-1.59-.37-1.59-1.19v-3.88c0-.83.49-1.19,1.59-1.19h11.91c.75,0,1.15-.43,1.15-.96,0-.76-.4-1.06-1.15-1.13l-6.64-.7c-4.16-.46-6.86-1.79-6.86-5.51v-3.48C0,2.06,3.41,0,9.16,0h12.39c1.11,0,1.59.37,1.59,1.19v3.95c0,.83-.49,1.19-1.59,1.19h-10.31c-.75,0-1.2.4-1.2,1s.44,1,1.2,1.06l6.6.66c4.16.46,6.91,1.79,6.91,5.51v3.48c0,3.78-3.45,5.84-9.16,5.84H1.59Z"/>
      <path class="cls-3" d="m28.51,23.88c-1.11,0-1.59-.37-1.59-1.19V1.19c0-.83.49-1.19,1.59-1.19h13.55c8.06,0,10.45,2.62,10.45,6.47v4.25c0,3.85-2.39,6.47-10.45,6.47h-5.09v5.51c0,.83-.49,1.19-1.59,1.19h-6.86Zm8.37-12.67h3.98c1.73,0,2.08-.76,2.08-1.63v-1.76c0-.86-.35-1.62-2.08-1.62h-3.98v5.01Z"/>
    </g>
    <path class="cls-3" d="m104.83,23.88c-1.11,0-1.59-.37-1.59-1.19V1.19c0-.83.49-1.19,1.59-1.19h4.6c1.15,0,1.86.23,2.61.9l8.21,11.05.38-10.75c0-.83.49-1.19,1.59-1.19h6.64c1.11,0,1.59.37,1.59,1.19v21.5c0,.83-.49,1.19-1.59,1.19h-6.64c-1.11,0-1.97-1.59-1.97-1.59l-7.19-10.55v10.95c0,.83-.49,1.19-1.59,1.19h-6.64Z"/>
    <path class="cls-1" d="m98.87,0h-43.33c-.8,0-1.45.65-1.45,1.45v20.98c0,.8.65,1.45,1.45,1.45h43.33c.8,0,1.45-.65,1.45-1.45V1.45c0-.8-.65-1.45-1.45-1.45Zm-24.13,14.06c0,4.52-3.66,8.19-8.19,8.19s-8.19-3.66-8.19-8.19v-4.25c0-4.52,3.66-8.19,8.19-8.19s8.19,3.66,8.19,8.19v4.25Zm21.36,0c0,4.52-3.66,8.19-8.19,8.19s-8.19-3.66-8.19-8.19v-4.25c0-4.52,3.66-8.19,8.19-8.19s8.19,3.66,8.19,8.19v4.25Z"/>
    <g>
      <path class="cls-3" d="m5.54,54.64l-3.42-25.06h1.91c.87,6.57,2.4,18.64,2.61,22.05h.04c.19-3.15,2.27-15.8,3.17-22.05h1.94c.9,6.19,2.95,18.16,3.13,21.96h.1c.26-3.87,1.96-15.52,2.83-21.96h1.84l-3.74,25.06h-2.09c-.87-6.03-2.73-18.17-3.09-21.62h-.04c-.46,4-2.19,15.55-3.12,21.62h-2.08Z"/>
      <path class="cls-3" d="m29.4,42.02h-5.51v10.92h6.19l-.26,1.69h-7.7v-25.06h7.6v1.7h-5.83v9.07h5.51v1.69Z"/>
      <path class="cls-3" d="m32.31,29.57h3.69c3.46,0,4.73,2.06,4.73,5.27v1.27c0,3.5-.93,4.61-2.25,5.09,1.47.42,2.77,1.79,2.77,5.03v1.82c0,4.46-1.29,6.58-5.35,6.58h-3.6v-25.06Zm3.79,10.88c2.22,0,2.9-1.07,2.9-4.29v-1.22c0-2.4-.87-3.75-3.15-3.75h-1.78v9.26h2.04Zm-2.04,12.56h1.77c2.91,0,3.63-1.5,3.63-4.98v-1.78c0-2.93-1.15-4.2-3.45-4.2h-1.95v10.95Z"/>
      <path class="cls-3" d="m48.16,41.6h2c2.75,0,2.89,1.95,2.89,3.78v5.25c0,2.01-.28,4-3.03,4h-1.86v-13.04Zm.92,12.18h.85c1.7,0,2.17-.92,2.17-2.88v-5.7c0-1.72-.3-2.75-2.14-2.75h-.88v11.32Z"/>
      <path class="cls-3" d="m63.49,48.08h-2.86v5.68h3.22l-.14.88h-4.01v-13.04h3.96v.88h-3.03v4.72h2.86v.88Z"/>
      <path class="cls-3" d="m70.48,51.08v.72c0,1.41.5,2.14,1.48,2.14s1.47-.63,1.47-2.46c0-1.61-.35-2.31-1.66-3.36-1.34-1.08-2-1.7-2-3.62,0-1.61.46-3.09,2.23-3.07,1.56.02,2.15,1.01,2.15,2.84v.54h-.92v-.52c0-1.2-.24-2-1.25-2s-1.29.93-1.29,2.06c0,1.41.28,1.88,1.47,2.83,1.65,1.32,2.19,2.03,2.19,4.18,0,1.82-.42,3.43-2.39,3.43-1.83,0-2.41-1.27-2.41-2.99v-.73h.92Z"/>
      <path class="cls-3" d="m81.69,41.6v13.04h-.92v-13.04h.92Z"/>
      <path class="cls-3" d="m93.15,54.64h-.75c-.02-.2-.06-.93-.07-1.23-.29,1.04-1,1.39-1.83,1.39-1.66,0-2.22-1.29-2.22-3.29v-6.8c0-2.14.86-3.28,2.49-3.28,1.89,0,2.37,1.32,2.37,3.16v.27h-.92v-.25c0-1.07-.11-2.3-1.46-2.3-.99,0-1.53.62-1.53,2.4v6.75c0,1.45.35,2.46,1.42,2.46,1.37,0,1.56-1.36,1.56-3.25v-2.2h-1.6v-.86h2.54v7.01Z"/>
      <path class="cls-3" d="m99.85,54.64v-13.04h1.15c.8,2.81,2.73,9.92,2.98,11.24h.03c-.06-1.86-.09-3.69-.09-5.8v-5.44h.9v13.04h-1.12c-.86-3.06-2.75-10.25-3.07-11.63h-.02c.08,1.56.14,3.87.14,6.22v5.41h-.9Z"/>
    </g>
    <path class="cls-1" d="m104.2,37l-5.1-12.54c-.14-.35-.48-.57-.85-.57h-1.95c.34,0,.65.21.78.52l4.66,11.42c.22.55-.18,1.15-.78,1.15h-48.71c-.62,0-1.03-.65-.76-1.21l5.59-11.42c.14-.29.43-.47.75-.47h-1.72c-.35,0-.67.2-.83.52l-6.13,12.54c-.3.61.15,1.32.83,1.32h53.36c.65,0,1.1-.66.85-1.27Z"/>
    <path class="cls-2" d="m68.39,32.96l-.67,2.14c-.12.1.06.23.33.23h18.3c.26,0,.44-.11.34-.22l-.72-2.14c-.06-.06-.19-.1-.34-.1h-16.91c-.14,0-.27.03-.33.09Z"/>
  </g>
</svg>